<svg xmlns="http://www.w3.org/2000/svg" viewBox="0 0 280 280">
  <defs>
    <linearGradient id="front" x1="0" y1="0" x2="0" y2="1"><stop stop-color="#f8f7f0"/><stop offset="1" stop-color="#d7ddd9"/></linearGradient>
    <linearGradient id="side" x1="0" y1="0" x2="1" y2="1"><stop stop-color="#c8d2d0"/><stop offset="1" stop-color="#9eb1b3"/></linearGradient>
    <filter id="shadow"><feGaussianBlur stdDeviation="5"/></filter>
  </defs>
  <ellipse cx="143" cy="240" rx="92" ry="25" fill="#20343b" opacity=".16" filter="url(#shadow)"/>
  <path d="M54 116 139 73 228 117 143 162Z" fill="#e5ece8"/>
  <path d="M54 116 143 162 143 229 54 184Z" fill="url(#front)" stroke="#7e9195" stroke-width="2"/>
  <path d="M143 162 228 117 228 184 143 229Z" fill="url(#side)" stroke="#7e9195" stroke-width="2"/>
  <path d="M68 104 139 69 213 106 142 142Z" fill="#4f8fb8" stroke="#355d70" stroke-width="3"/>
  <path d="M83 119 142 89 199 118 141 148Z" fill="#dce9ee" opacity=".8"/>
  <g fill="#5e7e88">
    <rect x="70" y="139" width="12" height="35" rx="2"/><rect x="92" y="150" width="12" height="35" rx="2"/>
    <rect x="114" y="161" width="12" height="35" rx="2"/>
    <path d="M158 160 173 152v34l-15 8Z"/><path d="M183 147 198 139v34l-15 8Z"/><path d="M208 134 221 127v34l-13 7Z"/>
  </g>
  <path d="M93 126 142 101 190 126 142 151Z" fill="#f5f1df" stroke="#7e9195" stroke-width="2"/>
  <path d="M101 131v11m17-20v29m24-42v42m25-29v29m17-20v11" stroke="#8a9a9d" stroke-width="6" stroke-linecap="round"/>
  <path d="M91 147 142 173 194 146" fill="none" stroke="#6e8388" stroke-width="5"/>
  <path d="M119 183 143 195v33l-24-12Z" fill="#365b68"/><path d="M143 195 163 184v33l-20 11Z" fill="#284650"/>
  <circle cx="140" cy="91" r="9" fill="#e5bd57"/><path d="M140 84v14m-7-7h14" stroke="#fff7d3" stroke-width="2"/>
</svg>
